<svg xmlns="http://www.w3.org/2000/svg" viewBox="0 0 32 32"><g transform="translate(0 -1020.362)"><path fill="#f3f3f3" d="M3.444 1045.387H0v-2.025h31v2.025h-4.375m-4.219 0H7.676"/><path fill="#f8572f" d="M14 1029.362v-.946c0-.57.459-1.029 1.029-1.029.57 0 1.028.46 1.028 1.03v.945"/><path style="line-height:normal;text-indent:0;text-align:start;text-decoration-line:none;text-decoration-style:solid;text-decoration-color:#000;text-transform:none;block-progression:tb;isolation:auto;mix-blend-mode:normal" fill="#e2e6e9" d="M24.5 1043.362c-1.392 0-2.582.837-3.14 2.026h2.98c.054-.01.104-.025.16-.025.056 0 .106.02.16.025h2.981c-.559-1.189-1.75-2.026-3.141-2.026z" color="#000" font-family="sans-serif" font-weight="400" overflow="visible"/><path fill="#f3f3f3" d="M18.864 1031.413H23.5c1.939 0 3.5 1.56 3.5 3.5v3.474h1.5c1.385 0 2.5 1.115 2.5 2.5v2.516l-12.068.01z"/><path style="line-height:normal;text-indent:0;text-align:start;text-decoration-line:none;text-decoration-style:solid;text-decoration-color:#000;text-transform:none;block-progression:tb;isolation:auto;mix-blend-mode:normal" fill="#e2e6e9" d="M5.5 1043.362c-1.392 0-2.584.837-3.143 2.026H5.34c.054-.01.104-.025.16-.025.056 0 .104.02.158.025H8.641c-.559-1.189-1.75-2.026-3.141-2.026Z" color="#000" font-family="sans-serif" font-weight="400" overflow="visible"/><rect width="19" height="14" y="1029.387" fill="#f3f3f3" rx="1.975" ry="1.975"/><circle cx="5.5" cy="1046.862" r="2.5" fill="#60727d"/><circle cx="24.5" cy="1046.862" r="2.5" fill="#60727d"/><path fill="#27b6fe" fill-rule="evenodd" d="M25 1037.356h-4v-3.969h2c1.215 0 2.006.777 2.006 1.991v1.437z"/><path fill="none" stroke="#0572e4" stroke-linecap="round" stroke-linejoin="round" d="M21.493 1038.862h1"/><circle cx="5.5" cy="1046.862" r="1" fill="#758b98"/><circle cx="24.5" cy="1046.862" r="1" fill="#758b98"/><rect width="19" height="3.025" y="1040.362" fill="#f3f3f3" rx="0" ry="0"/><path style="line-height:normal;text-indent:0;text-align:start;text-decoration-line:none;text-decoration-style:solid;text-decoration-color:#000;text-transform:none;block-progression:tb;isolation:auto;mix-blend-mode:normal" fill="#f8572f" fill-rule="evenodd" d="M.007 1043.362v1h1.5c.676.01.676-1.01 0-1z" color="#000" font-family="sans-serif" font-weight="400" overflow="visible"/><path style="line-height:normal;text-indent:0;text-align:start;text-decoration-line:none;text-decoration-style:solid;text-decoration-color:#000;text-transform:none;block-progression:tb;isolation:auto;mix-blend-mode:normal" fill="#feb033" fill-rule="evenodd" d="M29.493 1043.362c-.676-.01-.676 1.01 0 1h1.5v-1z" color="#000" font-family="sans-serif" font-weight="400" overflow="visible"/><path fill="#f8572f" d="M9 1032.362v2H7v2h2v2h2v-2h2v-2h-2v-2H9z"/><path fill="none" stroke="#60727d" stroke-linecap="round" stroke-linejoin="round" d="M15 1025.38v-1m2.005 2.002.707-.707m-4.717.707-.707-.707"/><path fill="#f8572f" d="M0 1040.362v2h31v-1.474c0-.18-.02-.356-.057-.526H0z"/></g></svg>