<svg xmlns="http://www.w3.org/2000/svg" enable-background="new 0 0 50 50" viewBox="0 0 50 50"><path fill="#d3dbea" d="M35.86282,8.63011c0.2987,0.0531,0.6507,0.0213,0.896-0.1172l3.6907-2.1547
							c0.1813-0.1068,0.2667-0.224,0.2667-0.3521l-0.0415,25.5547c-0.0041,2.8286-1.5227,5.4385-3.9799,6.8401
							c-0.2453,0.1385-0.5867,0.1813-0.896,0.1281L35.86282,8.63011z"/><path fill="#9da9c1" d="M28.93232,7.91441l-0.0058-2.0442c-0.0022-0.8085-0.8409-1.8625-1.4539-2.2188l0.0118,2.2532
								C28.09743,6.26081,28.93002,7.10591,28.93232,7.91441z"/><path fill="#b4bed7" d="M27.67082,33.92751c-0.1699-0.0997-0.2549-0.2407-0.2549-0.3686l0.0567-29.9075
							c0,0.1416,0.0849,0.2689,0.2691,0.3675l7.7751,4.49c0.0987,0.0579,0.2171,0.0937,0.3415,0.1179l-0.0566,29.8998
							c-0.1283-0.0242-0.2513-0.0612-0.3557-0.124L27.67082,33.92751z"/><path fill="#e3e7f0" d="M40.45112,5.63691c0.3452,0.1993,0.34431,0.5225,0.0012,0.7219l-3.695,2.1473
							c-0.34289,0.1993-0.901,0.2009-1.2463,0.0016l-7.7748-4.4888c-0.3424-0.1977-0.3442-0.5226-0.0013-0.7219l3.6951-2.1473
							c0.3431-0.1994,0.9039-0.1993,1.2462-0.0017L40.45112,5.63691z"/><path fill="#96d696" d="M39.48882,10.67481c-0.0274-0.0157-0.068-0.015-0.1103,0.0091l-1.917,1.1109
									c-0.08909,0.0496-0.1542,0.1695-0.1539,0.2666l0.0012,1.0549c0.0002,0.0486,0.017,0.0825,0.0456,0.1031l0.3302,0.2217
									c-0.02719-0.0157-0.044-0.0496-0.0425-0.1013l-0.0059-1.0535c0.0013-0.1002,0.0695-0.2184,0.1539-0.2666l1.9201-1.1092
									c0.0438-0.0271,0.0815-0.0296,0.1119-0.0121L39.48882,10.67481z"/><path fill="#77cb77" d="M37.79532,13.42991c-0.0853,0.0493-0.1543,0.0092-0.1546-0.0888l-0.0031-1.0557
									c-0.0003-0.0979,0.0683-0.2175,0.1535-0.2668l1.9198-1.1092c0.08451-0.0488,0.1542-0.0091,0.15451,0.0889l0.00319,1.0556
									c0.0002,0.098-0.069,0.218-0.1535,0.2668L37.79532,13.42991z"/><path fill="#fe91ab" d="M39.48882,13.97851c-0.0274-0.0158-0.068-0.0151-0.1103,0.009l-1.917,1.1109
									c-0.08909,0.0496-0.1542,0.1695-0.1539,0.2667l0.0012,1.0548c0.0002,0.0486,0.017,0.0826,0.0456,0.1031l0.3302,0.2217
									c-0.02719-0.0157-0.044-0.0496-0.0425-0.1013l-0.0059-1.0535c0.0013-0.1002,0.0695-0.2184,0.1539-0.2666l1.9201-1.1091
									c0.0438-0.0272,0.0815-0.0297,0.1119-0.0122L39.48882,13.97851z"/><path fill="#ed5d71" d="M37.79532,16.73351c-0.0853,0.0493-0.1543,0.0092-0.1546-0.0888l-0.0031-1.0557
									c-0.0003-0.0979,0.0683-0.2175,0.1535-0.2668l1.9198-1.1092c0.08451-0.0488,0.1542-0.0091,0.15451,0.0889l0.00319,1.0556
									c0.0002,0.098-0.069,0.218-0.1535,0.2668L37.79532,16.73351z"/><path fill="#ffdd94" d="M39.48882,17.28211c-0.0274-0.0158-0.068-0.0151-0.1103,0.009l-1.917,1.1109
									c-0.08909,0.0496-0.1542,0.1695-0.1539,0.2667l0.0012,1.0548c0.0002,0.0486,0.017,0.0826,0.0456,0.1031l0.3302,0.2217
									c-0.02719-0.0157-0.044-0.0496-0.0425-0.1013l-0.0059-1.0535c0.0013-0.1002,0.0695-0.2184,0.1539-0.2666l1.9201-1.1091
									c0.0438-0.0272,0.0815-0.0297,0.1119-0.0122L39.48882,17.28211z"/><path fill="#febb61" d="M37.79532,20.03711c-0.0853,0.0493-0.1543,0.0092-0.1546-0.0888l-0.0031-1.0556
									c-0.0003-0.098,0.0683-0.2176,0.1535-0.2669l1.9198-1.1092c0.08451-0.0488,0.1542-0.0091,0.15451,0.0889l0.00319,1.0556
									c0.0002,0.098-0.069,0.218-0.1535,0.2668L37.79532,20.03711z"/><path fill="#7bb1ff" d="M39.48882,20.58571c-0.0274-0.0158-0.068-0.0151-0.1103,0.009l-1.917,1.1109
									c-0.08909,0.0496-0.1542,0.1695-0.1539,0.2667l0.0012,1.0548c0.0002,0.0486,0.017,0.0826,0.0456,0.1031l0.3302,0.2217
									c-0.02719-0.0157-0.044-0.0496-0.0425-0.1012l-0.0059-1.0536c0.0013-0.1002,0.0695-0.2184,0.1539-0.2666l1.9201-1.1091
									c0.0438-0.0272,0.0815-0.0297,0.1119-0.0122L39.48882,20.58571z"/><path fill="#5793fb" d="M37.79532,23.34071c-0.0853,0.0493-0.1543,0.0092-0.1546-0.0888l-0.0031-1.0556
									c-0.0003-0.098,0.0683-0.2176,0.1535-0.2669l1.9198-1.1092c0.08451-0.0488,0.1542-0.0091,0.15451,0.0889l0.00319,1.0556
									c0.0002,0.098-0.069,0.218-0.1535,0.2668L37.79532,23.34071z"/><g><path fill="#4c5671" d="M39.48882,23.88931c-0.0274-0.0158-0.068-0.0151-0.1103,0.009l-1.917,1.1109
									c-0.08909,0.0496-0.1542,0.1695-0.1539,0.2667l0.0012,1.0548c0.0002,0.0486,0.017,0.0826,0.0456,0.1031l0.3302,0.2217
									c-0.02719-0.0157-0.044-0.0496-0.0425-0.1012l-0.0059-1.0536c0.0013-0.1002,0.0695-0.2184,0.1539-0.2666l1.9201-1.1091
									c0.0438-0.0272,0.0815-0.0297,0.1119-0.0122L39.48882,23.88931z"/><path fill="#373f51" d="M37.79532,26.64431c-0.0853,0.0493-0.1543,0.0092-0.1546-0.0888l-0.0031-1.0556
									c-0.0003-0.098,0.0683-0.2176,0.1535-0.2669l1.9198-1.1092c0.08451-0.0488,0.1542-0.0091,0.15451,0.0889l0.00319,1.0556
									c0.0002,0.098-0.069,0.218-0.1535,0.2668L37.79532,26.64431z"/></g><g><path fill="#d3dbea" d="M30.43902,8.32391l0.0057,2.0443c1.6617-0.9594,4.4925-0.1325,5.4151,0.4036l-0.0058-2.0443
					C34.93143,8.19141,32.10062,7.36451,30.43902,8.32391z"/><polygon fill="#d3dbea" points="20.928 13.871 20.934 15.915 30.445 10.368 30.439 8.324"/><polygon fill="#9da9c1" points="18.521 12.472 18.527 14.516 20.934 15.915 20.928 13.871"/><path fill="#e3e7f0" d="M28.03162,6.92491c1.5221-0.8787,0.5419-2.2937-0.3385-2.9328l0.0238,0.0067l8.1371,4.7287
					c-0.9226-0.536-3.7534-1.3631-5.4151-0.4037l-9.5106,5.5469l-2.4075-1.399L28.03162,6.92491z"/></g><g><path fill="#4c5671" d="M20.26202,18.95081l0.0033,5.2289c0,0.0736-0.0483,0.1449-0.1449,0.2017l-1.65681,0.9575
				c-0.1932,0.1108-0.5058,0.1108-0.6962,0l-1.6454-0.9546c-0.0966-0.0568-0.1421-0.131-0.1449-0.2019l-0.0017-5.2316H20.26202z"/><path fill="#9da9c1" d="M21.48112,16.75461l0.0051,3.5821c0,0.1155-0.0758,0.2274-0.2274,0.3164l-2.5998,1.5026
				c-0.3032,0.1739-0.7938,0.1739-1.0926,0l-2.5819-1.498c-0.1516-0.0891-0.223-0.2055-0.2274-0.3169l-0.0026-3.5862H21.48112z"/><path fill="#b4bed7" d="M13.55812,13.41621l0.0061,3.9391c0.006,0.151,0.1026,0.3082,0.3081,0.4289l3.498,2.0298
						c0.4047,0.2357,1.0693,0.2357,1.4801,0l3.5222-2.0357c0.2054-0.121,0.3081-0.272,0.3081-0.4289l-0.012-3.9391
						c0,0.1569-0.1028,0.308-0.3082,0.4289l-3.5221,2.0361c-0.4048,0.2354-1.0754,0.2354-1.4802,0l-3.498-2.0361
						C13.65482,13.72451,13.55812,13.56721,13.55812,13.41621z"/><path fill="#d3dbea" d="M13.86543,12.98181c-0.4089,0.2361-0.4149,0.6213-0.0047,0.8597l3.4987,2.0333
						c0.4062,0.2361,1.0714,0.2338,1.4802-0.0023l3.5217-2.0332c0.4089-0.2361,0.4111-0.6191,0.0048-0.8552l-3.4987-2.0332
						c-0.41021-0.2384-1.0715-0.2384-1.4803-0.0023L13.86543,12.98181z"/><g><path fill="#b4bed7" d="M15.90282,12.88841l0.0029,0.6774c0.003,0.0734,0.0499,0.1498,0.1497,0.2084l1.6995,0.9862
						c0.1966,0.1145,0.5195,0.1145,0.7191,0l1.7112-0.989c0.0998-0.0588,0.1497-0.1322,0.1497-0.2084l-0.0059-0.6775
						c0,0.0763-0.0499,0.1496-0.1497,0.2084l-1.7112,0.9892c-0.1966,0.1144-0.5224,0.1144-0.7191,0l-1.6995-0.9892
						C15.94972,13.03811,15.90282,12.96181,15.90282,12.88841z"/><path fill="#e3e7f0" d="M16.05212,12.67731c-0.1987,0.1147-0.2016,0.3019-0.0023,0.4177l1.6998,0.9878
						c0.1974,0.1147,0.5205,0.1137,0.7192-0.001l1.7109-0.9879c0.19871-0.1147,0.19971-0.3007,0.0024-0.4154l-1.6999-0.9879
						c-0.1993-0.1158-0.5205-0.1158-0.7192-0.0011L16.05212,12.67731z"/></g></g><g><polygon fill="#e3e7f0" points="9.75 37.532 18.193 42.438 35.858 31.765 27.416 26.858"/><polygon fill="#b4bed7" points="18.193 42.438 9.75 37.532 9.758 44.093 18.201 49"/><polygon fill="#d3dbea" points="18.193 42.438 18.201 49 36.549 38.468 36.531 31.376"/></g><g><path fill="#4c5671" d="M13.97532,32.53101l0.0186,5.0999c0.0015,0.5299,0.3497,1.059,1.0456,1.4634
			c1.4004,0.8138,3.6787,0.8138,5.0883,0c0.7094-0.4096,1.0636-0.9472,1.0621-1.484l-0.0185-5.0998
			c0.0015,0.5367-0.3528,1.0743-1.0622,1.4839c-1.4096,0.8138-3.6879,0.8138-5.0883,0
			C14.32512,33.59001,13.97682,33.06091,13.97532,32.53101z"/></g><g><path fill="#ddae8e" d="M9.28382,31.03851l0.0426,1.19c0.0035,1.2191,0.8047,2.4364,2.4054,3.3666
					c3.2218,1.8723,8.4633,1.8723,11.7061,0.0001c1.6321-0.9423,2.4471-2.1791,2.4436-3.4139l-0.0427-1.1901
					c0.0035,1.2349-0.8115,2.4717-2.4435,3.4139c-3.2429,1.8723-8.4844,1.8723-11.7061,0
					C10.08843,33.47481,9.28722,32.25761,9.28382,31.03851z"/><path fill="#f9d5b4" d="M11.72732,27.62451c3.2435-1.8726,8.4838-1.8726,11.70611,0c3.22179,1.8723,3.2053,4.9081-0.03811,6.7807
				c-3.2429,1.8722-8.4844,1.8722-11.7061-0.0001C8.46682,32.53251,8.48452,29.49671,11.72732,27.62451z"/><path fill="#fe91ab" d="M15.03392,29.54601c1.4051-0.8112,3.6753-0.8112,5.0713,0c1.3957,0.8111,1.3886,2.1262-0.0165,2.9375
				c-1.4049,0.8111-3.6756,0.811-5.07129,0C13.62143,31.67221,13.62912,30.35711,15.03392,29.54601z"/></g></svg>